<svg height="504pt" viewBox="0 0 504.92836 504" width="504pt" xmlns="http://www.w3.org/2000/svg"><path d="m56.511719 460.980469c3.019531-3.015625 3.636719-7.683594 1.503906-11.378907-2.132813-3.695312-6.484375-5.496093-10.605469-4.390624-4.121094 1.105468-6.984375 4.847656-6.976562 9.113281-.007813 2.496093.984375 4.890625 2.757812 6.648437 3.71875 3.574219 9.59375 3.578125 13.320313.007813zm0 0"/><path d="m58.335938 504.097656h.089843c5.75.332032 11.421875-1.492187 15.898438-5.121094l57.398437-74.105468c17.015625-24.75 39.242188-45.476563 65.121094-60.722656l10.78125-6.015626c.070312-.070312.167969-.101562.269531-.089843.625-.304688 1.289063-.515625 1.972657-.628907.4375-.164062.890624-.285156 1.347656-.359374.636718-.03125 1.269531.03125 1.886718.179687.515626-.03125 1.035157.03125 1.527344.179687.511719.164063.996094.40625 1.4375.71875.605469.257813 1.179688.589844 1.707032.988282.070312.003906.132812.035156.179687.089844 20.417969 18.546874 42.867187 34.730468 66.917969 48.234374 14.824218 8.171876 25.839844 8.652344 33.058594 1.4375l49.042968-49.046874c.859375-.816407 1.347656-1.953126 1.347656-3.140626 0-1.191406-.488281-2.328124-1.347656-3.144531l-215.128906-215.128906c-.820312-.863281-1.957031-1.351563-3.144531-1.351563s-2.324219.488282-3.144531 1.351563l-49.042969 49.042969c-7.1875 7.097656-6.738281 18.234375 1.4375 33.054687 13.167969 23.539063 28.925781 45.53125 46.976562 65.574219.089844.089844.089844.179688.179688.265625.367187.546875.699219 1.117187.988281 1.707031.261719.421875.472656.875.628906 1.347656.140625.5625.230469 1.132813.269532 1.707032.078124.566406.105468 1.136718.089843 1.707031-.089843.488281-.207031.96875-.359375 1.4375-.128906.652344-.339844 1.289063-.628906 1.886719.011719.097656-.019531.199218-.089844.269531l-6.109375 10.957031c-15.238281 25.882813-35.964843 48.113282-60.71875 65.125l-74.015625 57.308594c-3.628906 4.476562-5.457031 10.144531-5.1210935 15.898438.5624995 15.359374 6.6562495 30.003906 17.1562495 41.230468 11.195313 10.496094 25.804688 16.585938 41.140626 17.15625zm155.574218-264.355468c3.503906-3.484376 9.164063-3.484376 12.667969 0l13.023437 13.023437c3.480469 3.503906 3.480469 9.164063 0 12.667969-1.65625 1.722656-3.945312 2.695312-6.332031 2.695312-2.390625 0-4.675781-.972656-6.332031-2.695312l-13.027344-12.9375c-3.5-3.527344-3.5-9.222656 0-12.753906zm-71.589844-58.835938c-3.480468-3.503906-3.480468-9.160156 0-12.664062 3.53125-3.503907 9.226563-3.503907 12.753907 0l45.542969 45.539062c3.484374 3.503906 3.484374 9.164062 0 12.667969-1.71875 1.648437-3.996094 2.578125-6.378907 2.605469-2.382812-.011719-4.667969-.945313-6.375-2.605469zm-111.832031 254.023438c6.878907-7.09375 17.050781-9.933594 26.609375-7.425782 9.558594 2.507813 17.023438 9.976563 19.53125 19.535156 2.507813 9.558594-.328125 19.726563-7.425781 26.605469-7.828125 7.84375-19.617187 10.1875-29.847656 5.9375-10.234375-4.25-16.890625-14.257812-16.859375-25.339843-.050782-7.25 2.832031-14.214844 7.992187-19.3125zm0 0"/><path d="m164.578125 125.691406 215.121094 215.121094c1.746093 1.710938 4.542969 1.710938 6.289062 0l49.691407-49.699219-48.199219-7.984375c-11.761719-1.964844-19.9375-12.78125-18.621094-24.632812l10.015625-90.144532c.136719-1.234374-.242188-2.472656-1.050781-3.417968-.804688-.945313-1.96875-1.511719-3.207031-1.570313l-108.222657-5.15625c-6.113281-.289062-11.847656-3.066406-15.867187-7.683593-4.019532-4.617188-5.980469-10.675782-5.429688-16.773438l3.765625-41.453125c.117188-1.328125-.355469-2.636719-1.296875-3.578125-.9375-.941406-2.246094-1.417969-3.574218-1.300781l-52.222657 4.75-27.207031 27.210937c-1.742188 1.75-1.742188 4.578125 0 6.332032zm0 0"/><path d="m260.269531 75.972656c4.738281 4.71875 7.117188 11.308594 6.484375 17.964844l-3.761718 41.445312c-.109376 1.21875.28125 2.429688 1.085937 3.351563s1.949219 1.476563 3.171875 1.535156l108.21875 5.15625c6.195312.296875 11.992188 3.136719 16.015625 7.855469 4.027344 4.71875 5.921875 10.890625 5.238281 17.054688l-10.015625 90.109374c-.261719 2.367188 1.371094 4.527344 3.71875 4.925782l60.925781 10.15625 52.261719-52.257813c1.753907-1.753906 1.753907-4.597656 0-6.351562l-215.140625-215.140625c-1.75-1.7500002-4.59375-1.7500002-6.347656 0l-70.511719 70.503906 30.753907-2.792969c6.632812-.601562 13.191406 1.777344 17.902343 6.484375zm0 0"/></svg>